<mxfile host="www.draw.io" modified="2019-12-10T14:12:30.577Z" agent="Mozilla/5.0 (Windows NT 10.0; Win64; x64) AppleWebKit/537.36 (KHTML, like Gecko) Chrome/78.0.3904.108 Safari/537.36" etag="lqwcxuS9QkGY9v-ADKPz" version="12.3.9" type="github" pages="1">
  <diagram id="79CZyGl81b-DOHCzq7t8" name="Page-1">
    <mxGraphModel dx="1038" dy="547" grid="1" gridSize="10" guides="1" tooltips="1" connect="1" arrows="1" fold="1" page="1" pageScale="1" pageWidth="827" pageHeight="1169" math="0" shadow="0">
      <root>
        <mxCell id="0"/>
        <mxCell id="1" parent="0"/>
        <mxCell id="6SA6Cz4rasjYMu8Vp4-Y-1" value="Web" style="ellipse;whiteSpace=wrap;html=1;aspect=fixed;fillColor=#dae8fc;strokeColor=#6c8ebf;" parent="1" vertex="1">
          <mxGeometry x="80" y="120" width="80" height="80" as="geometry"/>
        </mxCell>
        <mxCell id="6SA6Cz4rasjYMu8Vp4-Y-14" style="edgeStyle=orthogonalEdgeStyle;rounded=0;orthogonalLoop=1;jettySize=auto;html=1;exitX=0.5;exitY=1;exitDx=0;exitDy=0;entryX=0;entryY=0.5;entryDx=0;entryDy=0;jumpStyle=none;curved=1;startArrow=classic;startFill=1;" parent="1" source="6SA6Cz4rasjYMu8Vp4-Y-3" target="6SA6Cz4rasjYMu8Vp4-Y-6" edge="1">
          <mxGeometry relative="1" as="geometry"/>
        </mxCell>
        <mxCell id="6SA6Cz4rasjYMu8Vp4-Y-3" value="API Gateway" style="ellipse;whiteSpace=wrap;html=1;aspect=fixed;fillColor=#dae8fc;strokeColor=#6c8ebf;" parent="1" vertex="1">
          <mxGeometry x="240" y="120" width="80" height="80" as="geometry"/>
        </mxCell>
        <mxCell id="ZEBDfa4W5BbnOJ2MSojY-12" style="edgeStyle=orthogonalEdgeStyle;curved=1;jumpStyle=arc;orthogonalLoop=1;jettySize=auto;html=1;exitX=1;exitY=0.5;exitDx=0;exitDy=0;entryX=0;entryY=0.5;entryDx=0;entryDy=0;" edge="1" parent="1" source="6SA6Cz4rasjYMu8Vp4-Y-4" target="ZEBDfa4W5BbnOJ2MSojY-11">
          <mxGeometry relative="1" as="geometry"/>
        </mxCell>
        <mxCell id="6SA6Cz4rasjYMu8Vp4-Y-4" value="Calculation" style="ellipse;whiteSpace=wrap;html=1;aspect=fixed;fillColor=#dae8fc;strokeColor=#6c8ebf;" parent="1" vertex="1">
          <mxGeometry x="640" y="40" width="80" height="80" as="geometry"/>
        </mxCell>
        <mxCell id="6SA6Cz4rasjYMu8Vp4-Y-5" value="Payment" style="ellipse;whiteSpace=wrap;html=1;aspect=fixed;fillColor=#dae8fc;strokeColor=#6c8ebf;" parent="1" vertex="1">
          <mxGeometry x="640" y="200" width="80" height="80" as="geometry"/>
        </mxCell>
        <mxCell id="ZEBDfa4W5BbnOJ2MSojY-4" style="edgeStyle=orthogonalEdgeStyle;jumpStyle=arc;orthogonalLoop=1;jettySize=auto;html=1;exitX=1;exitY=0;exitDx=0;exitDy=0;entryX=0;entryY=0.5;entryDx=0;entryDy=0;curved=1;" edge="1" parent="1" source="6SA6Cz4rasjYMu8Vp4-Y-6" target="ZEBDfa4W5BbnOJ2MSojY-6">
          <mxGeometry relative="1" as="geometry">
            <mxPoint x="510" y="230" as="targetPoint"/>
          </mxGeometry>
        </mxCell>
        <mxCell id="ZEBDfa4W5BbnOJ2MSojY-9" style="edgeStyle=orthogonalEdgeStyle;curved=1;jumpStyle=arc;orthogonalLoop=1;jettySize=auto;html=1;exitX=0.5;exitY=0;exitDx=0;exitDy=0;entryX=0;entryY=0.5;entryDx=0;entryDy=0;" edge="1" parent="1" source="6SA6Cz4rasjYMu8Vp4-Y-6" target="6SA6Cz4rasjYMu8Vp4-Y-11">
          <mxGeometry relative="1" as="geometry"/>
        </mxCell>
        <mxCell id="6SA6Cz4rasjYMu8Vp4-Y-6" value="Claim" style="ellipse;whiteSpace=wrap;html=1;aspect=fixed;fillColor=#dae8fc;strokeColor=#6c8ebf;" parent="1" vertex="1">
          <mxGeometry x="360" y="200" width="80" height="80" as="geometry"/>
        </mxCell>
        <mxCell id="6SA6Cz4rasjYMu8Vp4-Y-7" value="User" style="ellipse;whiteSpace=wrap;html=1;aspect=fixed;fillColor=#dae8fc;strokeColor=#6c8ebf;" parent="1" vertex="1">
          <mxGeometry x="360" y="40" width="80" height="80" as="geometry"/>
        </mxCell>
        <mxCell id="6SA6Cz4rasjYMu8Vp4-Y-8" value="" style="shape=cylinder;whiteSpace=wrap;html=1;boundedLbl=1;backgroundOutline=1;fillColor=#fff2cc;strokeColor=#d6b656;" parent="1" vertex="1">
          <mxGeometry x="705" y="240" width="30" height="40" as="geometry"/>
        </mxCell>
        <mxCell id="6SA6Cz4rasjYMu8Vp4-Y-9" value="" style="shape=cylinder;whiteSpace=wrap;html=1;boundedLbl=1;backgroundOutline=1;fillColor=#fff2cc;strokeColor=#d6b656;" parent="1" vertex="1">
          <mxGeometry x="425" y="240" width="30" height="40" as="geometry"/>
        </mxCell>
        <mxCell id="6SA6Cz4rasjYMu8Vp4-Y-10" value="" style="shape=cylinder;whiteSpace=wrap;html=1;boundedLbl=1;backgroundOutline=1;fillColor=#fff2cc;strokeColor=#d6b656;" parent="1" vertex="1">
          <mxGeometry x="425" y="80" width="30" height="40" as="geometry"/>
        </mxCell>
        <mxCell id="ZEBDfa4W5BbnOJ2MSojY-10" style="edgeStyle=orthogonalEdgeStyle;curved=1;jumpStyle=arc;orthogonalLoop=1;jettySize=auto;html=1;exitX=1;exitY=0.5;exitDx=0;exitDy=0;entryX=0;entryY=0.5;entryDx=0;entryDy=0;" edge="1" parent="1" source="6SA6Cz4rasjYMu8Vp4-Y-11" target="6SA6Cz4rasjYMu8Vp4-Y-4">
          <mxGeometry relative="1" as="geometry"/>
        </mxCell>
        <mxCell id="6SA6Cz4rasjYMu8Vp4-Y-11" value="AWS MQ" style="rounded=1;whiteSpace=wrap;html=1;fillColor=#e1d5e7;strokeColor=#9673a6;arcSize=50;rotation=0;" parent="1" vertex="1">
          <mxGeometry x="502.5" y="130" width="95" height="20" as="geometry"/>
        </mxCell>
        <mxCell id="6SA6Cz4rasjYMu8Vp4-Y-12" value="" style="endArrow=classic;html=1;exitX=1;exitY=0.5;exitDx=0;exitDy=0;entryX=0;entryY=0.5;entryDx=0;entryDy=0;jumpStyle=none;startArrow=classic;startFill=1;" parent="1" source="6SA6Cz4rasjYMu8Vp4-Y-1" target="6SA6Cz4rasjYMu8Vp4-Y-3" edge="1">
          <mxGeometry width="50" height="50" relative="1" as="geometry">
            <mxPoint x="80" y="350" as="sourcePoint"/>
            <mxPoint x="130" y="300" as="targetPoint"/>
          </mxGeometry>
        </mxCell>
        <mxCell id="6SA6Cz4rasjYMu8Vp4-Y-13" style="edgeStyle=orthogonalEdgeStyle;rounded=0;orthogonalLoop=1;jettySize=auto;html=1;exitX=0.5;exitY=0;exitDx=0;exitDy=0;entryX=0;entryY=0.5;entryDx=0;entryDy=0;jumpStyle=none;curved=1;startArrow=classic;startFill=1;" parent="1" source="6SA6Cz4rasjYMu8Vp4-Y-3" target="6SA6Cz4rasjYMu8Vp4-Y-7" edge="1">
          <mxGeometry relative="1" as="geometry"/>
        </mxCell>
        <mxCell id="ZEBDfa4W5BbnOJ2MSojY-8" style="edgeStyle=orthogonalEdgeStyle;jumpStyle=arc;orthogonalLoop=1;jettySize=auto;html=1;exitX=1;exitY=0.5;exitDx=0;exitDy=0;curved=1;" edge="1" parent="1" source="ZEBDfa4W5BbnOJ2MSojY-6" target="6SA6Cz4rasjYMu8Vp4-Y-5">
          <mxGeometry relative="1" as="geometry"/>
        </mxCell>
        <mxCell id="ZEBDfa4W5BbnOJ2MSojY-6" value="AWS MQ" style="rounded=1;whiteSpace=wrap;html=1;fillColor=#e1d5e7;strokeColor=#9673a6;arcSize=50;rotation=0;" vertex="1" parent="1">
          <mxGeometry x="502.5" y="230" width="95" height="20" as="geometry"/>
        </mxCell>
        <mxCell id="ZEBDfa4W5BbnOJ2MSojY-13" style="edgeStyle=orthogonalEdgeStyle;curved=1;jumpStyle=arc;orthogonalLoop=1;jettySize=auto;html=1;exitX=1;exitY=0.5;exitDx=0;exitDy=0;entryX=0.5;entryY=0;entryDx=0;entryDy=0;" edge="1" parent="1" source="ZEBDfa4W5BbnOJ2MSojY-11" target="6SA6Cz4rasjYMu8Vp4-Y-5">
          <mxGeometry relative="1" as="geometry"/>
        </mxCell>
        <mxCell id="ZEBDfa4W5BbnOJ2MSojY-11" value="AWS MQ" style="rounded=1;whiteSpace=wrap;html=1;fillColor=#e1d5e7;strokeColor=#9673a6;arcSize=50;rotation=90;" vertex="1" parent="1">
          <mxGeometry x="720" y="157" width="95" height="20" as="geometry"/>
        </mxCell>
      </root>
    </mxGraphModel>
  </diagram>
</mxfile>
